<mxfile host="app.diagrams.net" modified="2024-06-27T03:45:01.861Z" agent="Mozilla/5.0 (Windows NT 10.0; Win64; x64) AppleWebKit/537.36 (KHTML, like Gecko) Chrome/126.0.0.0 Safari/537.36" etag="d6v-I-9IBCTSKHfmnDQ3" version="24.6.3" type="github">
  <diagram name="Page-1" id="FoeLCeBAoli1q3300-ak">
    <mxGraphModel dx="2029" dy="616" grid="1" gridSize="10" guides="1" tooltips="1" connect="1" arrows="1" fold="1" page="1" pageScale="1" pageWidth="850" pageHeight="1100" math="1" shadow="0">
      <root>
        <mxCell id="0" />
        <mxCell id="1" parent="0" />
        <mxCell id="X7BoHz75ftYkDyZQmEYW-111" value="&lt;b style=&quot;font-size: 30px;&quot;&gt;&lt;font color=&quot;#0000ff&quot; style=&quot;font-size: 30px;&quot;&gt;&lt;span style=&quot;white-space: pre; font-size: 30px;&quot;&gt;&#x9;&lt;/span&gt;GAN1&lt;/font&gt;&lt;/b&gt;" style="rounded=1;whiteSpace=wrap;html=1;fillColor=none;dashed=1;dashPattern=8 8;strokeColor=#0000ff;strokeWidth=3;align=left;verticalAlign=top;labelPosition=center;verticalLabelPosition=middle;spacingRight=0;labelBorderColor=none;horizontal=1;fontSize=30;shadow=1;" vertex="1" parent="1">
          <mxGeometry x="-440" y="720" width="730" height="420" as="geometry" />
        </mxCell>
        <mxCell id="X7BoHz75ftYkDyZQmEYW-75" value="GAN2&amp;nbsp; &amp;nbsp; &amp;nbsp; &amp;nbsp;&amp;nbsp;&lt;span style=&quot;white-space: pre; font-size: 30px;&quot;&gt;&#x9;&lt;/span&gt;&lt;span style=&quot;white-space: pre; font-size: 30px;&quot;&gt;&#x9;&lt;/span&gt;" style="rounded=1;whiteSpace=wrap;html=1;fillColor=none;dashed=1;dashPattern=8 8;strokeColor=#FF8000;strokeWidth=3;align=right;verticalAlign=top;labelPosition=center;verticalLabelPosition=middle;spacingRight=0;labelBorderColor=none;horizontal=1;fontSize=30;fontColor=#ff8000;fontStyle=1;shadow=1;" vertex="1" parent="1">
          <mxGeometry x="-130" y="700" width="730" height="460" as="geometry" />
        </mxCell>
        <mxCell id="X7BoHz75ftYkDyZQmEYW-76" style="edgeStyle=orthogonalEdgeStyle;rounded=0;orthogonalLoop=1;jettySize=auto;html=1;exitX=0;exitY=0.5;exitDx=0;exitDy=0;fillColor=#ffe6cc;strokeColor=#d79b00;shape=flexArrow;shadow=1;" edge="1" parent="1">
          <mxGeometry relative="1" as="geometry">
            <mxPoint x="140" y="1030" as="targetPoint" />
            <Array as="points">
              <mxPoint x="220" y="1030" />
              <mxPoint x="220" y="1030" />
            </Array>
            <mxPoint x="320" y="1030" as="sourcePoint" />
          </mxGeometry>
        </mxCell>
        <mxCell id="X7BoHz75ftYkDyZQmEYW-77" style="edgeStyle=orthogonalEdgeStyle;rounded=0;orthogonalLoop=1;jettySize=auto;html=1;exitX=0.25;exitY=1;exitDx=0;exitDy=0;entryX=1;entryY=0.5;entryDx=0;entryDy=0;shape=flexArrow;fillColor=#dae8fc;strokeColor=#6c8ebf;shadow=1;" edge="1" parent="1" source="X7BoHz75ftYkDyZQmEYW-96">
          <mxGeometry relative="1" as="geometry">
            <mxPoint x="-160.00000000000023" y="1030" as="targetPoint" />
          </mxGeometry>
        </mxCell>
        <mxCell id="X7BoHz75ftYkDyZQmEYW-78" style="edgeStyle=orthogonalEdgeStyle;rounded=0;orthogonalLoop=1;jettySize=auto;html=1;exitX=0.5;exitY=0;exitDx=0;exitDy=0;entryX=0.25;entryY=1;entryDx=0;entryDy=0;shape=flexArrow;fillColor=#ffe6cc;strokeColor=#d79b00;shadow=1;" edge="1" parent="1" target="X7BoHz75ftYkDyZQmEYW-92">
          <mxGeometry relative="1" as="geometry">
            <mxPoint x="-60.00000000000023" y="870" as="sourcePoint" />
            <Array as="points">
              <mxPoint x="-60" y="770" />
            </Array>
          </mxGeometry>
        </mxCell>
        <mxCell id="X7BoHz75ftYkDyZQmEYW-79" style="edgeStyle=orthogonalEdgeStyle;rounded=0;orthogonalLoop=1;jettySize=auto;html=1;exitX=0;exitY=0.5;exitDx=0;exitDy=0;entryX=1;entryY=0.5;entryDx=0;entryDy=0;shape=flexArrow;fillColor=#dae8fc;strokeColor=#6c8ebf;shadow=1;" edge="1" parent="1" target="X7BoHz75ftYkDyZQmEYW-108">
          <mxGeometry relative="1" as="geometry">
            <mxPoint x="-120.00000000000023" y="930" as="sourcePoint" />
          </mxGeometry>
        </mxCell>
        <mxCell id="X7BoHz75ftYkDyZQmEYW-81" style="edgeStyle=orthogonalEdgeStyle;rounded=0;orthogonalLoop=1;jettySize=auto;html=1;exitX=0.5;exitY=1;exitDx=0;exitDy=0;entryX=0.25;entryY=1;entryDx=0;entryDy=0;shape=flexArrow;fillColor=#dae8fc;strokeColor=#6c8ebf;labelBorderColor=none;shadow=1;" edge="1" parent="1" target="X7BoHz75ftYkDyZQmEYW-97">
          <mxGeometry relative="1" as="geometry">
            <mxPoint x="220" y="990" as="sourcePoint" />
            <Array as="points">
              <mxPoint x="220" y="1090" />
            </Array>
          </mxGeometry>
        </mxCell>
        <mxCell id="X7BoHz75ftYkDyZQmEYW-82" style="edgeStyle=orthogonalEdgeStyle;rounded=0;orthogonalLoop=1;jettySize=auto;html=1;exitX=1;exitY=0.5;exitDx=0;exitDy=0;entryX=0;entryY=0.5;entryDx=0;entryDy=0;shape=flexArrow;fillColor=#ffe6cc;strokeColor=#d79b00;shadow=1;" edge="1" parent="1" target="X7BoHz75ftYkDyZQmEYW-110">
          <mxGeometry relative="1" as="geometry">
            <mxPoint x="280" y="930" as="sourcePoint" />
          </mxGeometry>
        </mxCell>
        <mxCell id="X7BoHz75ftYkDyZQmEYW-84" style="edgeStyle=orthogonalEdgeStyle;rounded=0;orthogonalLoop=1;jettySize=auto;html=1;entryX=0.75;entryY=1;entryDx=0;entryDy=0;exitX=1;exitY=0.5;exitDx=0;exitDy=0;shape=flexArrow;strokeWidth=1;strokeColor=#6c8ebf;fillColor=#dae8fc;endArrow=block;endFill=0;startArrow=none;startFill=0;gradientColor=none;shadow=1;" edge="1" parent="1" target="X7BoHz75ftYkDyZQmEYW-92">
          <mxGeometry relative="1" as="geometry">
            <mxPoint x="-160.00000000000023" y="830" as="sourcePoint" />
          </mxGeometry>
        </mxCell>
        <mxCell id="X7BoHz75ftYkDyZQmEYW-85" style="edgeStyle=orthogonalEdgeStyle;rounded=0;orthogonalLoop=1;jettySize=auto;html=1;exitX=0;exitY=0.5;exitDx=0;exitDy=0;entryX=0;entryY=0.5;entryDx=0;entryDy=0;dashed=1;endArrow=none;endFill=0;" edge="1" parent="1">
          <mxGeometry relative="1" as="geometry">
            <Array as="points">
              <mxPoint x="-320" y="830" />
              <mxPoint x="-320" y="1030" />
            </Array>
            <mxPoint x="-280.0000000000002" y="830" as="sourcePoint" />
            <mxPoint x="-280.0000000000002" y="1030" as="targetPoint" />
          </mxGeometry>
        </mxCell>
        <mxCell id="X7BoHz75ftYkDyZQmEYW-86" value="\(\mathcal{L}_{cycle}\)" style="edgeLabel;html=1;align=center;verticalAlign=middle;resizable=0;points=[];fontSize=18;" vertex="1" connectable="0" parent="X7BoHz75ftYkDyZQmEYW-85">
          <mxGeometry x="-0.0059" y="-1" relative="1" as="geometry">
            <mxPoint x="11" y="121" as="offset" />
          </mxGeometry>
        </mxCell>
        <mxCell id="X7BoHz75ftYkDyZQmEYW-87" style="edgeStyle=orthogonalEdgeStyle;rounded=0;orthogonalLoop=1;jettySize=auto;html=1;exitX=0;exitY=0.75;exitDx=0;exitDy=0;entryX=0.5;entryY=0;entryDx=0;entryDy=0;shape=flexArrow;fillColor=#dae8fc;strokeColor=#6c8ebf;shadow=1;" edge="1" parent="1" target="X7BoHz75ftYkDyZQmEYW-108">
          <mxGeometry relative="1" as="geometry">
            <mxPoint x="-280.0000000000002" y="860" as="sourcePoint" />
          </mxGeometry>
        </mxCell>
        <mxCell id="X7BoHz75ftYkDyZQmEYW-89" style="edgeStyle=orthogonalEdgeStyle;rounded=0;orthogonalLoop=1;jettySize=auto;html=1;exitX=1;exitY=0.25;exitDx=0;exitDy=0;entryX=0.5;entryY=1;entryDx=0;entryDy=0;shape=flexArrow;fillColor=#ffe6cc;strokeColor=#d79b00;" edge="1" parent="1" target="X7BoHz75ftYkDyZQmEYW-110">
          <mxGeometry relative="1" as="geometry">
            <mxPoint x="440" y="1000" as="sourcePoint" />
          </mxGeometry>
        </mxCell>
        <mxCell id="X7BoHz75ftYkDyZQmEYW-91" value="" style="group;fontSize=16;" vertex="1" connectable="0" parent="1">
          <mxGeometry x="20" y="740" width="120" height="120" as="geometry" />
        </mxCell>
        <mxCell id="X7BoHz75ftYkDyZQmEYW-92" value="" style="shape=trapezoid;perimeter=trapezoidPerimeter;whiteSpace=wrap;html=1;fixedSize=1;direction=south;strokeColor=none;fillColor=#dae8fc;shadow=1;" vertex="1" parent="X7BoHz75ftYkDyZQmEYW-91">
          <mxGeometry width="60" height="120" as="geometry" />
        </mxCell>
        <mxCell id="X7BoHz75ftYkDyZQmEYW-93" value="" style="shape=trapezoid;perimeter=trapezoidPerimeter;whiteSpace=wrap;html=1;fixedSize=1;direction=north;strokeColor=none;fillColor=#dae8fc;shadow=1;" vertex="1" parent="X7BoHz75ftYkDyZQmEYW-91">
          <mxGeometry x="60" width="60" height="120" as="geometry" />
        </mxCell>
        <mxCell id="X7BoHz75ftYkDyZQmEYW-94" value="\(G\)" style="text;html=1;align=center;verticalAlign=middle;resizable=0;points=[];autosize=1;strokeColor=none;fillColor=none;fontSize=26;fontStyle=0" vertex="1" parent="X7BoHz75ftYkDyZQmEYW-91">
          <mxGeometry x="20" y="40" width="80" height="40" as="geometry" />
        </mxCell>
        <mxCell id="X7BoHz75ftYkDyZQmEYW-95" value="" style="group;fontSize=16;strokeColor=none;shadow=0;rounded=0;" vertex="1" connectable="0" parent="1">
          <mxGeometry x="20" y="1000" width="120" height="120" as="geometry" />
        </mxCell>
        <mxCell id="X7BoHz75ftYkDyZQmEYW-96" value="" style="shape=trapezoid;perimeter=trapezoidPerimeter;whiteSpace=wrap;html=1;fixedSize=1;direction=south;fillColor=#ffe6cc;strokeColor=none;shadow=1;" vertex="1" parent="X7BoHz75ftYkDyZQmEYW-95">
          <mxGeometry width="60" height="120" as="geometry" />
        </mxCell>
        <mxCell id="X7BoHz75ftYkDyZQmEYW-97" value="" style="shape=trapezoid;perimeter=trapezoidPerimeter;whiteSpace=wrap;html=1;fixedSize=1;direction=north;fillColor=#ffe6cc;strokeColor=none;perimeterSpacing=0;rounded=0;shadow=1;" vertex="1" parent="X7BoHz75ftYkDyZQmEYW-95">
          <mxGeometry x="60" width="60" height="120" as="geometry" />
        </mxCell>
        <mxCell id="X7BoHz75ftYkDyZQmEYW-98" value="\(F\)" style="text;html=1;align=center;verticalAlign=middle;resizable=0;points=[];autosize=1;strokeColor=none;fillColor=none;fontSize=26;" vertex="1" parent="X7BoHz75ftYkDyZQmEYW-95">
          <mxGeometry x="25" y="40" width="70" height="40" as="geometry" />
        </mxCell>
        <mxCell id="X7BoHz75ftYkDyZQmEYW-99" style="edgeStyle=orthogonalEdgeStyle;rounded=0;orthogonalLoop=1;jettySize=auto;html=1;exitX=0.75;exitY=1;exitDx=0;exitDy=0;shape=flexArrow;fillColor=#dae8fc;strokeColor=#6c8ebf;shadow=1;" edge="1" parent="1" source="X7BoHz75ftYkDyZQmEYW-93">
          <mxGeometry relative="1" as="geometry">
            <mxPoint x="219.96551724137953" y="870" as="targetPoint" />
          </mxGeometry>
        </mxCell>
        <mxCell id="X7BoHz75ftYkDyZQmEYW-100" style="edgeStyle=orthogonalEdgeStyle;rounded=0;orthogonalLoop=1;jettySize=auto;html=1;shape=flexArrow;strokeWidth=1;strokeColor=#d79b00;fillColor=#ffe6cc;endArrow=block;endFill=0;startArrow=none;startFill=0;exitX=0.25;exitY=1;exitDx=0;exitDy=0;entryX=0;entryY=0.5;entryDx=0;entryDy=0;shadow=1;" edge="1" parent="1" source="X7BoHz75ftYkDyZQmEYW-93">
          <mxGeometry relative="1" as="geometry">
            <mxPoint x="180" y="780" as="sourcePoint" />
            <mxPoint x="320" y="830" as="targetPoint" />
            <Array as="points" />
          </mxGeometry>
        </mxCell>
        <mxCell id="X7BoHz75ftYkDyZQmEYW-101" style="edgeStyle=orthogonalEdgeStyle;rounded=0;orthogonalLoop=1;jettySize=auto;html=1;exitX=0.75;exitY=1;exitDx=0;exitDy=0;entryX=0.5;entryY=1;entryDx=0;entryDy=0;shape=flexArrow;fillColor=#ffe6cc;strokeColor=#d79b00;shadow=1;" edge="1" parent="1" source="X7BoHz75ftYkDyZQmEYW-96">
          <mxGeometry relative="1" as="geometry">
            <mxPoint x="-60.00000000000023" y="990" as="targetPoint" />
          </mxGeometry>
        </mxCell>
        <mxCell id="X7BoHz75ftYkDyZQmEYW-104" style="edgeStyle=orthogonalEdgeStyle;rounded=0;orthogonalLoop=1;jettySize=auto;html=1;exitX=1;exitY=0.5;exitDx=0;exitDy=0;entryX=1;entryY=0.5;entryDx=0;entryDy=0;dashed=1;endArrow=none;endFill=0;" edge="1" parent="1">
          <mxGeometry relative="1" as="geometry">
            <mxPoint x="440" y="830" as="sourcePoint" />
            <mxPoint x="440" y="1030" as="targetPoint" />
            <Array as="points">
              <mxPoint x="480" y="830" />
              <mxPoint x="480" y="1030" />
            </Array>
          </mxGeometry>
        </mxCell>
        <mxCell id="X7BoHz75ftYkDyZQmEYW-105" value="\(\mathcal{L}_{cycle}\)" style="edgeLabel;html=1;align=center;verticalAlign=middle;resizable=0;points=[];fontSize=18;" vertex="1" connectable="0" parent="X7BoHz75ftYkDyZQmEYW-104">
          <mxGeometry x="-0.0059" y="-1" relative="1" as="geometry">
            <mxPoint x="-9" y="121" as="offset" />
          </mxGeometry>
        </mxCell>
        <mxCell id="X7BoHz75ftYkDyZQmEYW-106" style="edgeStyle=orthogonalEdgeStyle;rounded=0;orthogonalLoop=1;jettySize=auto;html=1;exitX=0.5;exitY=1;exitDx=0;exitDy=0;" edge="1" parent="1" source="X7BoHz75ftYkDyZQmEYW-108">
          <mxGeometry relative="1" as="geometry">
            <mxPoint x="-385" y="990" as="targetPoint" />
          </mxGeometry>
        </mxCell>
        <mxCell id="X7BoHz75ftYkDyZQmEYW-107" value="\(\mathcal{L}_{D_1}\)" style="edgeLabel;html=1;align=center;verticalAlign=middle;resizable=0;points=[];fontSize=18;" vertex="1" connectable="0" parent="X7BoHz75ftYkDyZQmEYW-106">
          <mxGeometry x="-0.1968" relative="1" as="geometry">
            <mxPoint y="28" as="offset" />
          </mxGeometry>
        </mxCell>
        <mxCell id="X7BoHz75ftYkDyZQmEYW-108" value="\(D_1\)" style="rounded=1;whiteSpace=wrap;html=1;gradientColor=none;gradientDirection=south;shadow=1;fontSize=26;" vertex="1" parent="1">
          <mxGeometry x="-420" y="900" width="70" height="60" as="geometry" />
        </mxCell>
        <mxCell id="X7BoHz75ftYkDyZQmEYW-109" value="&#xa;&lt;span style=&quot;color: rgb(0, 0, 0); font-family: Helvetica; font-size: 18px; font-style: normal; font-variant-ligatures: normal; font-variant-caps: normal; font-weight: 400; letter-spacing: normal; orphans: 2; text-align: center; text-indent: 0px; text-transform: none; widows: 2; word-spacing: 0px; -webkit-text-stroke-width: 0px; text-decoration-thickness: initial; text-decoration-style: initial; text-decoration-color: initial; float: none; display: inline !important;&quot;&gt;\(\mathcal{L}_{D_2}\)&lt;/span&gt;&#xa;&#xa;" style="edgeStyle=orthogonalEdgeStyle;rounded=0;orthogonalLoop=1;jettySize=auto;html=1;exitX=0.5;exitY=1;exitDx=0;exitDy=0;labelBackgroundColor=none;" edge="1" parent="1">
          <mxGeometry x="1" y="10" relative="1" as="geometry">
            <mxPoint x="544.8" y="870" as="targetPoint" />
            <mxPoint x="544.8" y="900" as="sourcePoint" />
            <mxPoint x="10" y="-10" as="offset" />
          </mxGeometry>
        </mxCell>
        <mxCell id="X7BoHz75ftYkDyZQmEYW-110" value="\(D_2\)" style="rounded=1;whiteSpace=wrap;html=1;gradientColor=none;gradientDirection=south;shadow=1;fontSize=26;" vertex="1" parent="1">
          <mxGeometry x="510" y="900" width="70" height="60" as="geometry" />
        </mxCell>
        <mxCell id="X7BoHz75ftYkDyZQmEYW-112" value="\(A\)" style="rounded=0;whiteSpace=wrap;html=1;fontSize=18;fillColor=#d5e8d4;strokeColor=#82b366;" vertex="1" parent="1">
          <mxGeometry x="-280" y="770" width="120" height="120" as="geometry" />
        </mxCell>
        <mxCell id="X7BoHz75ftYkDyZQmEYW-113" value="\(G(A)\)" style="rounded=0;whiteSpace=wrap;html=1;fontSize=18;fillColor=#d5e8d4;strokeColor=#82b366;" vertex="1" parent="1">
          <mxGeometry x="160" y="870" width="120" height="120" as="geometry" />
        </mxCell>
        <mxCell id="X7BoHz75ftYkDyZQmEYW-114" value="\(F(B)\)" style="rounded=0;whiteSpace=wrap;html=1;fontSize=18;fillColor=#e1d5e7;strokeColor=#9673a6;" vertex="1" parent="1">
          <mxGeometry x="-120" y="870" width="120" height="120" as="geometry" />
        </mxCell>
        <mxCell id="X7BoHz75ftYkDyZQmEYW-115" value="\(B\)" style="rounded=0;whiteSpace=wrap;html=1;fontSize=18;fillColor=#e1d5e7;strokeColor=#9673a6;" vertex="1" parent="1">
          <mxGeometry x="320" y="970" width="120" height="120" as="geometry" />
        </mxCell>
        <mxCell id="X7BoHz75ftYkDyZQmEYW-116" value="\(F(G(A))\)" style="rounded=0;whiteSpace=wrap;html=1;fontSize=18;fillColor=#d5e8d4;strokeColor=#82b366;" vertex="1" parent="1">
          <mxGeometry x="-280" y="970" width="120" height="120" as="geometry" />
        </mxCell>
        <mxCell id="X7BoHz75ftYkDyZQmEYW-117" value="\(G(F(B))\)" style="rounded=0;whiteSpace=wrap;html=1;fontSize=18;fillColor=#e1d5e7;strokeColor=#9673a6;" vertex="1" parent="1">
          <mxGeometry x="320" y="770" width="120" height="120" as="geometry" />
        </mxCell>
      </root>
    </mxGraphModel>
  </diagram>
</mxfile>
